<svg width="122" height="33" viewBox="0 0 122 33" fill="none" xmlns="http://www.w3.org/2000/svg">
<path d="M13.1944 32.0922C12.5381 32.0922 11.9637 31.9965 11.4714 31.8051C11.0065 31.641 10.5962 31.4359 10.2407 31.1897C9.88514 30.9436 9.59797 30.6837 9.37918 30.4102C9.16038 30.1641 9.00996 29.959 8.92791 29.7949C8.54501 29.1111 8.10742 28.1813 7.61513 27.0052C7.12283 25.8018 6.60319 24.4617 6.0562 22.9848C5.53656 21.5079 5.00324 19.9353 4.45625 18.267C3.90925 16.5987 3.37594 14.9577 2.85629 13.3441C2.364 11.7031 1.88538 10.1442 1.42044 8.66731C0.982847 7.19043 0.599952 5.905 0.271757 4.81101C0.162358 4.34607 0.162358 3.90847 0.271757 3.49823C0.381155 3.06064 0.558928 2.67774 0.805074 2.34955C1.07857 1.994 1.39309 1.69316 1.74864 1.44701C2.10418 1.20086 2.45973 1.03677 2.81527 0.954717C3.82721 0.68122 4.72974 0.749594 5.52288 1.15984C6.34337 1.57008 6.86301 2.1581 7.08181 2.92389C7.38265 3.85377 7.72452 5.08451 8.10742 6.61608C8.51766 8.14766 8.95526 9.80231 9.4202 11.58C9.88514 13.3304 10.3774 15.1355 10.8971 16.9953C11.4441 18.8277 11.9911 20.5234 12.5381 22.0823C12.7295 22.6019 12.962 22.8618 13.2355 22.8618C13.5363 22.8618 13.7825 22.6019 13.9739 22.0823C14.5483 20.496 15.1089 18.773 15.6559 16.9132C16.2303 15.0261 16.7636 13.1937 17.2559 11.4159C17.7482 9.61087 18.1994 7.94254 18.6097 6.41096C19.0473 4.87938 19.4028 3.66233 19.6763 2.75979C19.9224 1.994 20.4284 1.44701 21.1942 1.11881C21.96 0.790619 22.8078 0.73592 23.7377 0.954717C24.6403 1.17351 25.3787 1.61111 25.953 2.2675C26.5547 2.92389 26.7462 3.71703 26.5274 4.64691C26.1992 5.76825 25.8026 7.06735 25.3377 8.54423C24.8727 10.0211 24.3668 11.58 23.8198 13.221C23.3001 14.8346 22.7531 16.4756 22.1788 18.1439C21.6045 19.8123 21.0438 21.3985 20.4968 22.9028C19.9498 24.3797 19.4302 25.7335 18.9379 26.9642C18.4456 28.1676 18.0217 29.1248 17.6661 29.8359C17.5567 30 17.3926 30.2051 17.1738 30.4513C16.955 30.6974 16.6678 30.9436 16.3123 31.1897C15.9568 31.4359 15.5192 31.641 14.9995 31.8051C14.5072 31.9965 13.9055 32.0922 13.1944 32.0922Z" fill="#D75644"/>
<path d="M40.8558 19.3747C40.555 19.3747 40.2541 19.2926 39.9533 19.1285C39.6524 18.9371 39.3789 18.6909 39.1328 18.3901C38.914 18.0892 38.7225 17.7337 38.5584 17.3235C38.4217 16.9132 38.3533 16.4619 38.3533 15.9697C38.3533 15.5321 38.4217 15.1081 38.5584 14.6979C38.7225 14.2603 38.914 13.8774 39.1328 13.5492C39.3789 13.221 39.6524 12.9612 39.9533 12.7697C40.2541 12.5783 40.5686 12.4826 40.8968 12.4826H48.8556C49.1291 12.4826 49.4162 12.5646 49.7171 12.7287C50.0179 12.8655 50.2914 13.0843 50.5376 13.3851C50.7837 13.686 50.9888 14.0415 51.1529 14.4517C51.317 14.862 51.3991 15.3406 51.3991 15.8876C51.3991 16.3252 51.3307 16.7628 51.1939 17.2004C51.0846 17.6106 50.9068 17.9798 50.6606 18.308C50.4418 18.6362 50.1683 18.8961 49.8401 19.0875C49.5393 19.279 49.1974 19.3747 48.8145 19.3747H40.8558ZM48.5274 24.2976C49.3752 24.0515 50.182 24.1335 50.9478 24.5438C51.7409 24.9266 52.2743 25.6104 52.5478 26.595C52.6845 27.0873 52.7119 27.5522 52.6298 27.9898C52.5751 28.4 52.4384 28.7829 52.2196 29.1385C52.0281 29.4667 51.782 29.7539 51.4811 30C51.1803 30.2735 50.8658 30.4923 50.5376 30.6564C49.9085 30.9572 49.1974 31.2034 48.4043 31.3948C47.6385 31.5863 46.8454 31.723 46.0249 31.8051C45.2317 31.9145 44.4249 31.9828 43.6044 32.0102C42.8113 32.0649 42.0865 32.0922 41.4301 32.0922C40.719 32.0922 39.9806 32.0512 39.2148 31.9692C38.4764 31.9145 37.7516 31.8324 37.0405 31.723C36.3568 31.6136 35.7004 31.4769 35.0714 31.3128C34.4697 31.1487 33.95 30.9709 33.5124 30.7795C32.9107 30.506 32.268 30.082 31.5843 29.5077C30.9279 28.9334 30.504 28.1539 30.3125 27.1693C30.2031 26.595 30.1074 25.6924 30.0254 24.4617C29.9707 23.2036 29.9296 21.7951 29.9023 20.2362C29.9023 18.6499 29.9023 16.9953 29.9023 15.2722C29.9023 13.5492 29.916 11.9219 29.9433 10.3903C29.998 8.8314 30.0527 7.46392 30.1074 6.28789C30.1621 5.11186 30.2305 4.29137 30.3125 3.82643C30.3672 3.38883 30.504 2.99226 30.7228 2.63672C30.9416 2.25382 31.2014 1.9393 31.5022 1.69315C31.8031 1.41966 32.1176 1.21454 32.4458 1.07779C32.8013 0.913692 33.1159 0.831643 33.3894 0.831643H49.0607C49.7444 0.831643 50.3735 1.13249 50.9478 1.73418C51.5495 2.30852 51.8503 3.14268 51.8503 4.23667C51.8503 4.67426 51.782 5.09818 51.6452 5.50843C51.5358 5.91867 51.358 6.28789 51.1119 6.61608C50.8658 6.94428 50.5649 7.2041 50.2094 7.39555C49.8538 7.587 49.4436 7.68272 48.9786 7.68272H37.9841C37.5465 7.68272 37.2867 7.81947 37.2046 8.09296C37.1226 8.36646 37.0816 8.55791 37.0816 8.66731C37.0269 9.59719 36.9722 10.7049 36.9175 11.9903C36.8901 13.2757 36.8628 14.6022 36.8354 15.9697C36.8354 17.3371 36.8354 18.6773 36.8354 19.99C36.8354 21.2755 36.8628 22.3968 36.9175 23.354C36.9448 24.2019 37.3687 24.6942 38.1892 24.8309C38.6815 24.9403 39.2148 25.0224 39.7892 25.0771C40.3909 25.1044 41.0062 25.1181 41.6353 25.1181C42.8113 25.1181 43.9873 25.0634 45.1634 24.954C46.3394 24.8172 47.4607 24.5985 48.5274 24.2976ZM109.296 7.72374C108.53 7.72374 107.901 7.40922 107.409 6.78018C106.916 6.12379 106.67 5.31698 106.67 4.35974C106.67 3.45721 106.916 2.65039 107.409 1.9393C107.901 1.20086 108.544 0.831643 109.337 0.831643H118.485C118.95 0.831643 119.347 0.941042 119.675 1.15984C120.003 1.35129 120.263 1.61111 120.454 1.9393C120.673 2.2675 120.837 2.63672 120.947 3.04696C121.056 3.45721 121.111 3.86745 121.111 4.27769C121.111 4.63324 121.07 5.01613 120.988 5.42638C120.906 5.83662 120.755 6.21951 120.536 6.57506C120.345 6.90326 120.071 7.17675 119.716 7.39555C119.388 7.61435 118.964 7.72374 118.444 7.72374H117.337C117.391 8.98183 117.419 10.3493 117.419 11.8262C117.446 13.3031 117.46 14.8073 117.46 16.3389C117.46 17.8704 117.446 19.402 117.419 20.9336C117.419 22.4378 117.391 23.86 117.337 25.2001H118.485C119.333 25.2001 119.976 25.542 120.413 26.2258C120.878 26.8821 121.111 27.7026 121.111 28.6872C121.111 29.6718 120.865 30.4786 120.372 31.1077C119.88 31.764 119.251 32.0922 118.485 32.0922H109.337C108.544 32.0922 107.901 31.764 107.409 31.1077C106.916 30.4786 106.67 29.6855 106.67 28.7282C106.67 27.771 106.916 26.9505 107.409 26.2668C107.901 25.5557 108.544 25.2001 109.337 25.2001H110.321C110.349 23.8874 110.376 22.4925 110.403 21.0157C110.431 19.5114 110.444 18.0072 110.444 16.503C110.444 14.9714 110.431 13.4535 110.403 11.9493C110.403 10.445 110.39 9.03652 110.362 7.72374H109.296Z" fill="#1E1E1E"/>
<path d="M55.5034 28.9334C55.4761 28.3317 55.4487 27.3744 55.4214 26.0617C55.394 24.7215 55.3667 23.231 55.3393 21.59C55.3393 19.9217 55.3393 18.1713 55.3393 16.3389C55.3393 14.4791 55.353 12.7287 55.3804 11.0877C55.4351 9.41942 55.4898 7.94254 55.5445 6.65711C55.5992 5.37168 55.6675 4.44179 55.7496 3.86745C55.8316 3.37516 56.0094 2.93756 56.2829 2.55467C56.5564 2.17177 56.8709 1.85725 57.2265 1.61111C57.582 1.33761 57.9375 1.14616 58.2931 1.03677C58.676 0.900017 58.9905 0.831643 59.2367 0.831643H74.4977C75.1815 0.831643 75.8105 1.14616 76.3849 1.7752C76.9866 2.3769 77.2874 3.19738 77.2874 4.23667C77.2874 5.1939 77.0139 6.01439 76.4669 6.69813C75.9473 7.35452 75.2635 7.68272 74.4157 7.68272H63.3801C62.9699 7.68272 62.7237 7.83314 62.6417 8.13399C62.5596 8.43483 62.5186 8.65363 62.5186 8.79038C62.4366 10.4587 62.3819 12.1954 62.3545 14.0005C62.3272 15.7782 62.3135 17.5423 62.3135 19.2926C62.3408 21.0157 62.3682 22.6977 62.3955 24.3386C62.4502 25.9523 62.5049 27.4155 62.5596 28.7282C62.6143 29.6034 62.3408 30.3829 61.7391 31.0666C61.1648 31.7504 60.2759 32.0922 59.0726 32.0922C58.3341 32.0922 57.7324 31.9692 57.2675 31.723C56.8025 31.4769 56.4333 31.176 56.1598 30.8205C55.9137 30.4923 55.7359 30.1504 55.6265 29.7949C55.5445 29.4393 55.5034 29.1522 55.5034 28.9334ZM66.2518 20.5234C65.951 20.5234 65.6501 20.4413 65.3493 20.2772C65.0484 20.0858 64.775 19.8396 64.5288 19.5388C64.31 19.2106 64.1186 18.8414 63.9545 18.4311C63.8177 18.0209 63.7493 17.5696 63.7493 17.0773C63.7493 16.6397 63.8177 16.2158 63.9545 15.8056C64.1186 15.368 64.31 14.9851 64.5288 14.6569C64.775 14.3287 65.0484 14.0689 65.3493 13.8774C65.6501 13.686 65.9647 13.5902 66.2929 13.5902H74.2516C74.5251 13.5902 74.8123 13.6723 75.1131 13.8364C75.4139 13.9731 75.6874 14.1919 75.9336 14.4928C76.1797 14.7936 76.3849 15.1492 76.549 15.5594C76.7131 15.9697 76.7951 16.4483 76.7951 16.9953C76.7951 17.4329 76.7267 17.8704 76.59 18.308C76.4806 18.7183 76.3028 19.0875 76.0567 19.4157C75.8379 19.7439 75.5644 20.0174 75.2362 20.2362C74.9353 20.4276 74.5935 20.5234 74.2106 20.5234H66.2518Z" fill="#FFD757"/>
<path d="M96.3105 30.7384C95.4901 29.6718 94.6285 28.4411 93.726 27.0462C92.8508 25.6241 91.9756 24.1882 91.1004 22.7387C90.2526 21.2618 89.4321 19.8259 88.639 18.4311C87.8458 17.0089 87.1621 15.7509 86.5878 14.6569C86.7245 16.626 86.8476 18.8414 86.957 21.3028C87.0664 23.7369 87.2305 26.2531 87.4493 28.8513C87.4766 29.2069 87.4219 29.5761 87.2852 29.959C87.1484 30.3145 86.9433 30.6427 86.6698 30.9436C86.4237 31.2444 86.0955 31.4906 85.6852 31.682C85.275 31.9008 84.8237 32.0375 84.3314 32.0922C83.8665 32.1469 83.4152 32.1196 82.9776 32.0102C82.54 31.9008 82.1434 31.723 81.7879 31.4769C81.4324 31.2307 81.1452 30.9436 80.9264 30.6154C80.7076 30.2872 80.5708 29.918 80.5161 29.5077C80.4614 28.7419 80.3931 27.7437 80.311 26.5129C80.2563 25.2822 80.2016 23.901 80.1469 22.3695C80.0922 20.8379 80.0512 19.2243 80.0238 17.5286C80.0238 15.8329 80.0375 14.1509 80.0649 12.4826C80.0922 10.8142 80.1332 9.2143 80.1879 7.68272C80.27 6.15114 80.3931 4.79734 80.5572 3.6213C80.6939 2.80081 81.0768 2.1034 81.7058 1.52906C82.3622 0.954717 83.2648 0.722245 84.4135 0.831643C84.8784 0.886342 85.4117 1.05044 86.0134 1.32393C86.6151 1.59743 87.0664 2.02135 87.3672 2.59569C89.1176 6.17849 90.7449 9.3784 92.2491 12.1954C93.7534 15.0124 95.2029 17.5286 96.5977 19.7439C96.5977 18.4585 96.584 17.132 96.5567 15.7645C96.5293 14.3697 96.4883 12.9885 96.4336 11.6211C96.3789 10.2536 96.3105 8.91345 96.2285 7.60067C96.1464 6.26054 96.037 5.00246 95.9003 3.82643C95.8456 3.44353 95.8866 3.08799 96.0234 2.75979C96.1875 2.40424 96.4063 2.1034 96.6798 1.85725C96.9806 1.58376 97.3225 1.36496 97.7054 1.20086C98.1156 1.00942 98.5259 0.886342 98.9361 0.831643C99.319 0.776943 99.7156 0.790618 100.126 0.872667C100.563 0.927367 100.96 1.03677 101.316 1.20086C101.698 1.36496 102.027 1.58376 102.3 1.85725C102.574 2.1034 102.738 2.41792 102.792 2.80081C102.956 3.97685 103.066 5.34433 103.121 6.90326C103.203 8.46218 103.257 10.0895 103.285 11.7852C103.339 13.4808 103.353 15.2039 103.326 16.9542C103.298 18.6773 103.257 20.3182 103.203 21.8772C103.175 23.4361 103.121 24.8446 103.039 26.1027C102.984 27.3608 102.915 28.359 102.833 29.0975C102.724 29.9727 102.396 30.6701 101.849 31.1897C101.302 31.7094 100.604 32.0102 99.7566 32.0922C98.9361 32.1743 98.2387 32.0649 97.6643 31.764C97.09 31.4632 96.6387 31.1213 96.3105 30.7384Z" fill="#8CBA32"/>
</svg>
